<?xml version="1.0" standalone="no"?><!DOCTYPE svg PUBLIC "-//W3C//DTD SVG 1.1//EN" "http://www.w3.org/Graphics/SVG/1.1/DTD/svg11.dtd"><svg t="1585462352739" class="icon" viewBox="0 0 1024 1024" version="1.1" xmlns="http://www.w3.org/2000/svg" p-id="3055" width="256" height="256" xmlns:xlink="http://www.w3.org/1999/xlink"><defs><style type="text/css"></style></defs><path d="M511.3 64.5c-247.4 0-448 200.6-448 448s200.6 448 448 448 448-200.6 448-448c0-247.5-200.5-448-448-448z m-77.2 247.1c0-17.1 13.8-30.9 30.9-30.9h92.7c17.1 0 30.9 13.8 30.9 30.9v339.9c0 17.1-13.8 30.9-30.9 30.9H465c-17.1 0-30.9-13.8-30.9-30.9V311.6z m-185.4 61.8c0-17.1 13.8-30.9 30.9-30.9h92.7c17.1 0 30.9 13.8 30.9 30.9v278.1c0 17.1-13.8 30.9-30.9 30.9h-92.7c-17.1 0-30.9-13.8-30.9-30.9V373.4z m509.8 370.8H264.2c-8.5 0-15.4-6.9-15.4-15.4s6.9-15.4 15.4-15.4h494.3c8.5 0 15.4 6.9 15.4 15.4 0.1 8.5-6.9 15.4-15.4 15.4z m15.5-92.7c0 17.1-13.8 30.9-30.9 30.9h-92.7c-17.1 0-30.9-13.8-30.9-30.9V373.4c0-17.1 13.8-30.9 30.9-30.9h92.7c17.1 0 30.9 13.8 30.9 30.9v278.1z m-463.5 0h30.9c17.1 0 30.9-13.8 30.9-30.9V404.3c0-17.1-13.8-30.9-30.9-30.9h-30.9c-17.1 0-30.9 13.8-30.9 30.9v216.3c0 17.1 13.8 30.9 30.9 30.9z m0-247.2h30.9c8.5 0 15.4 6.9 15.4 15.4s-6.9 15.4-15.4 15.4h-30.9c-8.5 0-15.4-6.9-15.4-15.4s6.9-15.4 15.4-15.4z m185.4 247.2h30.9c17.1 0 30.9-13.8 30.9-30.9V342.5c0-17.1-13.8-30.9-30.9-30.9h-30.9c-17.1 0-30.9 13.8-30.9 30.9v278.1c0 17.1 13.8 30.9 30.9 30.9z m0-309h30.9c8.5 0 15.4 6.9 15.4 15.4s-6.9 15.4-15.4 15.4h-30.9c-8.5 0-15.4-6.9-15.4-15.4-0.1-8.5 6.9-15.4 15.4-15.4z m216.3 30.9h-30.9c-17.1 0-30.9 13.8-30.9 30.9v216.3c0 17.1 13.8 30.9 30.9 30.9h30.9c17.1 0 30.9-13.8 30.9-30.9V404.3c0-17-13.9-30.9-30.9-30.9z m0 61.8h-30.9c-8.5 0-15.4-6.9-15.4-15.4s6.9-15.4 15.4-15.4h30.9c8.5 0 15.4 6.9 15.4 15.4s-6.9 15.4-15.4 15.4z" fill="#EFA78E" p-id="3056"></path></svg>